<svg xmlns="http://www.w3.org/2000/svg" width="1100" height="680" viewBox="0 0 1100 680">
<rect width="100%" height="100%" fill="#fff"/>
<style>text{font-family:Arial,Helvetica,sans-serif;fill:#111827}.small{font-size:13px}.axis{stroke:#111827;stroke-width:1.4}.grid{stroke:#e5e7eb;stroke-width:1}.raw{fill:#60a5fa;fill-opacity:.34}.best{fill:none;stroke:#dc2626;stroke-width:3}.rawline{fill:none;stroke:#93c5fd;stroke-width:1.25;stroke-opacity:.5}</style>
<text x="550.0" y="32" text-anchor="middle" font-size="22" font-weight="700">CapeCod-PlumeBench Score Curve: First 30 Minutes</text>
<text x="550.0" y="55" text-anchor="middle" class="small">run_id=capecod-agent-long-001, points=22, best=10.203 (agent-17)</text>
<line class="grid" x1="85" y1="595.00" x2="1065" y2="595.00"/>
<text x="73" y="599.00" text-anchor="end" class="small">0</text>
<line class="grid" x1="85" y1="490.00" x2="1065" y2="490.00"/>
<text x="73" y="494.00" text-anchor="end" class="small">5</text>
<line class="grid" x1="85" y1="385.00" x2="1065" y2="385.00"/>
<text x="73" y="389.00" text-anchor="end" class="small">10</text>
<line class="grid" x1="85" y1="280.00" x2="1065" y2="280.00"/>
<text x="73" y="284.00" text-anchor="end" class="small">15</text>
<line class="grid" x1="85" y1="175.00" x2="1065" y2="175.00"/>
<text x="73" y="179.00" text-anchor="end" class="small">20</text>
<line class="grid" x1="85" y1="70.00" x2="1065" y2="70.00"/>
<text x="73" y="74.00" text-anchor="end" class="small">25</text>
<line class="grid" x1="85.00" y1="70" x2="85.00" y2="595"/>
<text x="85.00" y="619" text-anchor="middle" class="small">0</text>
<line class="grid" x1="248.33" y1="70" x2="248.33" y2="595"/>
<text x="248.33" y="619" text-anchor="middle" class="small">5</text>
<line class="grid" x1="411.67" y1="70" x2="411.67" y2="595"/>
<text x="411.67" y="619" text-anchor="middle" class="small">10</text>
<line class="grid" x1="575.00" y1="70" x2="575.00" y2="595"/>
<text x="575.00" y="619" text-anchor="middle" class="small">15</text>
<line class="grid" x1="738.33" y1="70" x2="738.33" y2="595"/>
<text x="738.33" y="619" text-anchor="middle" class="small">20</text>
<line class="grid" x1="901.67" y1="70" x2="901.67" y2="595"/>
<text x="901.67" y="619" text-anchor="middle" class="small">25</text>
<line class="grid" x1="1065.00" y1="70" x2="1065.00" y2="595"/>
<text x="1065.00" y="619" text-anchor="middle" class="small">30</text>
<line class="axis" x1="85" y1="595" x2="1065" y2="595"/>
<line class="axis" x1="85" y1="70" x2="85" y2="595"/>
<text x="550.0" y="652" text-anchor="middle" font-size="15">Elapsed time since run start (minutes)</text>
<text transform="translate(26,340.0) rotate(-90)" text-anchor="middle" font-size="15">TOTAL_SCORE</text>
<polyline class="rawline" points="113.31,458.52 258.13,458.52 423.10,414.13 440.52,414.13 480.27,415.35 517.29,414.53 565.74,414.25 586.43,414.25 615.83,430.76 664.83,414.46 742.14,414.88 749.77,414.88 784.61,414.13 818.91,414.13 861.38,413.69 892.41,407.68 913.10,407.68 921.27,410.83 953.39,405.01 986.06,406.13 1016.00,406.65 1063.37,380.74"/>
<circle class="raw" cx="113.31" cy="458.52" r="2.5"><title>agent-1 0.9min score=6.499</title></circle>
<circle class="raw" cx="258.13" cy="458.52" r="2.5"><title>auto-1 5.3min score=6.499</title></circle>
<circle class="raw" cx="423.10" cy="414.13" r="2.5"><title>auto-2 10.3min score=8.613</title></circle>
<circle class="raw" cx="440.52" cy="414.13" r="2.5"><title>agent-2 10.9min score=8.613</title></circle>
<circle class="raw" cx="480.27" cy="415.35" r="2.5"><title>agent-3 12.1min score=8.555</title></circle>
<circle class="raw" cx="517.29" cy="414.53" r="2.5"><title>agent-4 13.2min score=8.594</title></circle>
<circle class="raw" cx="565.74" cy="414.25" r="2.5"><title>agent-5 14.7min score=8.607</title></circle>
<circle class="raw" cx="586.43" cy="414.25" r="2.5"><title>auto-3 15.3min score=8.607</title></circle>
<circle class="raw" cx="615.83" cy="430.76" r="2.5"><title>agent-6 16.2min score=7.821</title></circle>
<circle class="raw" cx="664.83" cy="414.46" r="2.5"><title>agent-7 17.8min score=8.597</title></circle>
<circle class="raw" cx="742.14" cy="414.88" r="2.5"><title>agent-8 20.1min score=8.577</title></circle>
<circle class="raw" cx="749.77" cy="414.88" r="2.5"><title>auto-4 20.4min score=8.577</title></circle>
<circle class="raw" cx="784.61" cy="414.13" r="2.5"><title>agent-9 21.4min score=8.613</title></circle>
<circle class="raw" cx="818.91" cy="414.13" r="2.5"><title>agent-10 22.5min score=8.613</title></circle>
<circle class="raw" cx="861.38" cy="413.69" r="2.5"><title>agent-11 23.8min score=8.634</title></circle>
<circle class="raw" cx="892.41" cy="407.68" r="2.5"><title>agent-12 24.7min score=8.920</title></circle>
<circle class="raw" cx="913.10" cy="407.68" r="2.5"><title>auto-5 25.4min score=8.920</title></circle>
<circle class="raw" cx="921.27" cy="410.83" r="2.5"><title>agent-13 25.6min score=8.770</title></circle>
<circle class="raw" cx="953.39" cy="405.01" r="2.5"><title>agent-14 26.6min score=9.047</title></circle>
<circle class="raw" cx="986.06" cy="406.13" r="2.5"><title>agent-15 27.6min score=8.994</title></circle>
<circle class="raw" cx="1016.00" cy="406.65" r="2.5"><title>agent-16 28.5min score=8.969</title></circle>
<circle class="raw" cx="1063.37" cy="380.74" r="2.5"><title>agent-17 29.9min score=10.203</title></circle>
<polyline class="best" points="113.31,458.52 258.13,458.52 423.10,414.13 440.52,414.13 480.27,414.13 517.29,414.13 565.74,414.13 586.43,414.13 615.83,414.13 664.83,414.13 742.14,414.13 749.77,414.13 784.61,414.13 818.91,414.13 861.38,413.69 892.41,407.68 913.10,407.68 921.27,407.68 953.39,405.01 986.06,405.01 1016.00,405.01 1063.37,380.74"/>
<rect x="91" y="72" width="330" height="92" rx="6" fill="#f9fafb" stroke="#d1d5db"/>
<text x="101" y="86" class="small" font-weight="700">Best score by checkpoint</text>
<text x="101" y="104" class="small"> 10 min: 6.499 (agent-1)</text>
<text x="101" y="122" class="small"> 20 min: 8.613 (auto-2)</text>
<text x="101" y="140" class="small"> 30 min: 10.203 (agent-17)</text>
<rect x="758" y="68" width="285" height="60" rx="6" fill="#f9fafb" stroke="#d1d5db"/>
<line x1="770" y1="86" x2="808" y2="86" stroke="#93c5fd" stroke-width="2" stroke-opacity=".6"/>
<text x="818" y="90" class="small">raw submission score</text>
<line x1="770" y1="110" x2="808" y2="110" stroke="#dc2626" stroke-width="3"/>
<text x="818" y="114" class="small">best score so far</text>
</svg>